<svg width="327" height="104" viewBox="0 0 327 104" fill="none" xmlns="http://www.w3.org/2000/svg">
<path d="M319.968 66.456C319.74 66.9586 319.961 67.5516 320.464 67.7805C320.967 68.0095 321.56 67.7876 321.789 67.285L319.968 66.456ZM325.355 53.0426L326.355 53.0195C326.347 52.6988 326.187 52.4012 325.922 52.2192C325.658 52.0371 325.323 51.9929 325.021 52.1002L325.355 53.0426ZM306.841 55.3603C306.29 55.3271 305.816 55.7471 305.783 56.2984C305.749 56.8496 306.169 57.3235 306.721 57.3567L306.841 55.3603ZM2.76479 0.819993C2.53584 0.317401 1.94281 0.0955713 1.44021 0.324523C0.937619 0.553482 0.715791 1.14651 0.944744 1.64911L2.76479 0.819993ZM106.628 102.589L106.697 101.591L106.628 102.589ZM163.302 76.8581L163.557 75.8913L163.302 76.8581ZM321.369 58.5003C321.822 58.1856 321.935 57.5625 321.621 57.1087C321.306 56.6548 320.683 56.542 320.229 56.8567L321.369 58.5003ZM321.789 67.285C322.559 65.594 323.707 62.8708 324.657 60.1787C325.131 58.8328 325.561 57.4815 325.869 56.2632C326.171 55.0642 326.376 53.9208 326.355 53.0195L324.355 53.0657C324.37 53.6872 324.222 54.6161 323.93 55.7735C323.642 56.9116 323.234 58.2005 322.771 59.5134C321.845 62.1388 320.72 64.8067 319.968 66.456L321.789 67.285ZM325.021 52.1002C321.486 53.3548 312.944 55.7281 306.841 55.3603L306.721 57.3567C313.244 57.7498 322.103 55.258 325.689 53.985L325.021 52.1002ZM1.85477 1.23455C0.944744 1.64911 0.945013 1.6497 0.945454 1.65066C0.945825 1.65147 0.946431 1.65281 0.947175 1.65443C0.94866 1.65768 0.950819 1.66241 0.953651 1.66859C0.959314 1.68096 0.967669 1.69918 0.978701 1.72314C1.00077 1.77107 1.03354 1.84202 1.07692 1.93524C1.16367 2.12171 1.29284 2.39731 1.46356 2.75627C1.80501 3.47417 2.31272 4.52551 2.97986 5.86383C4.31409 8.54035 6.28633 12.3654 8.84193 16.9672C13.952 26.1687 21.4001 38.4862 30.7498 50.9402C40.0966 63.3902 51.3645 76.0047 64.1206 85.7776C76.875 95.5492 91.1709 102.52 106.559 103.586L106.697 101.591C91.8288 100.561 77.9003 93.8153 65.3369 84.19C52.7752 74.5661 41.6319 62.104 32.3493 49.7395C23.0697 37.3789 15.6704 25.1437 10.5904 15.9962C8.05097 11.4235 6.09251 7.625 4.7698 4.97156C4.10847 3.6449 3.60615 2.60467 3.26968 1.89725C3.10145 1.54354 2.97469 1.27304 2.89026 1.09156C2.84804 1.00082 2.8164 0.932339 2.79546 0.886837C2.78498 0.864082 2.77718 0.847079 2.77207 0.835906C2.76951 0.830324 2.76762 0.826195 2.76641 0.823538C2.7658 0.822209 2.7654 0.821323 2.7651 0.820658C2.76486 0.820144 2.76479 0.819993 1.85477 1.23455ZM106.559 103.586C122.188 104.669 133.103 100.331 140.239 94.0399C147.351 87.7689 150.641 79.6142 151.131 73.162L149.137 73.0105C148.685 78.9647 145.621 86.6278 138.916 92.5397C132.234 98.4313 121.867 102.642 106.697 101.591L106.559 103.586ZM151.131 73.162C151.793 64.449 147.2 54.7707 139.603 46.1506C131.982 37.5043 121.22 29.7813 109.246 24.9717L108.5 26.8275C120.191 31.5234 130.693 39.0661 138.102 47.473C145.535 55.9061 149.74 65.0684 149.137 73.0105L151.131 73.162ZM109.246 24.9717C99.3678 21.0041 91.6683 20.2874 87.0022 22.1598C84.6182 23.1163 82.9861 24.7721 82.3717 27.0144C81.7683 29.2166 82.1942 31.8113 83.533 34.5967C86.2057 40.1571 92.698 46.8735 103.491 53.7474C114.312 60.6384 129.545 67.7451 149.838 74.0414L150.43 72.1312C130.266 65.8747 115.204 58.8351 104.566 52.0604C93.9012 45.2686 87.7724 38.8 85.3356 33.7303C84.1197 31.2006 83.8687 29.1191 84.3006 27.5429C84.7215 26.0069 85.8369 24.7824 87.747 24.0159C91.6688 22.4422 98.7435 22.9086 108.5 26.8275L109.246 24.9717ZM149.838 74.0414C154.023 75.3399 158.424 76.6041 163.046 77.825L163.557 75.8913C158.961 74.6774 154.588 73.421 150.43 72.1312L149.838 74.0414ZM163.046 77.825C238.576 97.7737 299.997 73.3182 321.369 58.5003L320.229 56.8567C299.282 71.3799 238.458 95.6739 163.557 75.8913L163.046 77.825Z" fill="#FFFEFD" fill-opacity="0.7"/>
</svg>
