<svg version="1.2" xmlns="http://www.w3.org/2000/svg" viewBox="0 0 842 352" width="772" height="323">
	<title>Mysol logo RGB-ai</title>
	<defs>
		<linearGradient id="g1" x2="1" gradientUnits="userSpaceOnUse" gradientTransform="matrix(16.651,9.057,-20.439,37.576,267.438,119.694)">
			<stop offset="0" stop-color="#ffffff"/>
			<stop offset="1" stop-color="#ffffff"/>
		</linearGradient>
		<linearGradient id="g2" x2="1" gradientUnits="userSpaceOnUse" gradientTransform="matrix(229.316,124.733,-164.281,302.024,122.831,21.991)">
			<stop offset="0" stop-color="#ffffff"/>
			<stop offset="1" stop-color="#ffffff"/>
		</linearGradient>
		<linearGradient id="g3" x2="1" gradientUnits="userSpaceOnUse" gradientTransform="matrix(20.803,11.316,-40.123,73.764,261.423,100.667)">
			<stop offset="0" stop-color="#ffffff"/>
			<stop offset="1" stop-color="#ffffff"/>
		</linearGradient>
		<linearGradient id="g4" x2="1" gradientUnits="userSpaceOnUse" gradientTransform="matrix(221.781,120.634,-73.755,135.595,111.915,55.223)">
			<stop offset="0" stop-color="#ffffff"/>
			<stop offset="1" stop-color="#ffffff"/>
		</linearGradient>
		<linearGradient id="g5" x2="1" gradientUnits="userSpaceOnUse" gradientTransform="matrix(231.499,125.92,-115.985,213.234,108.909,46.523)">
			<stop offset="0" stop-color="#ffffff"/>
			<stop offset="1" stop-color="#ffffff"/>
		</linearGradient>
		<linearGradient id="g6" x2="1" gradientUnits="userSpaceOnUse" gradientTransform="matrix(318.998,173.513,-306.029,562.622,60.214,1.559)">
			<stop offset="0" stop-color="#ffffff"/>
			<stop offset="1" stop-color="#fcfdfc"/>
		</linearGradient>
		<linearGradient id="g7" x2="1" gradientUnits="userSpaceOnUse" gradientTransform="matrix(227.635,123.818,-57.893,106.434,82.195,81.338)">
			<stop offset="0" stop-color="#ffffff"/>
			<stop offset="1" stop-color="#ffffff"/>
		</linearGradient>
		<linearGradient id="g8" x2="1" gradientUnits="userSpaceOnUse" gradientTransform="matrix(299.15,162.717,-181.325,333.359,44.799,15.847)">
			<stop offset="0" stop-color="#fdfeff"/>
			<stop offset="1" stop-color="#ffffff"/>
		</linearGradient>
		<linearGradient id="g9" x2="1" gradientUnits="userSpaceOnUse" gradientTransform="matrix(215.08,116.989,-64.891,119.3,84.437,120.589)">
			<stop offset="0" stop-color="#ffffff"/>
			<stop offset="1" stop-color="#ffffff"/>
		</linearGradient>
		<linearGradient id="g10" x2="1" gradientUnits="userSpaceOnUse" gradientTransform="matrix(216.504,117.764,-66.781,122.774,87.857,107.719)">
			<stop offset="0" stop-color="#ffffff"/>
			<stop offset="1" stop-color="#ffffff"/>
		</linearGradient>
		<linearGradient id="g11" x2="1" gradientUnits="userSpaceOnUse" gradientTransform="matrix(217.662,118.394,-68.385,125.723,89.955,98.121)">
			<stop offset="0" stop-color="#ffffff"/>
			<stop offset="1" stop-color="#ffffff"/>
		</linearGradient>
		<linearGradient id="g12" x2="1" gradientUnits="userSpaceOnUse" gradientTransform="matrix(217.002,118.035,-68.751,126.397,92.258,91.204)">
			<stop offset="0" stop-color="#ffffff"/>
			<stop offset="1" stop-color="#ffffff"/>
		</linearGradient>
		<linearGradient id="g13" x2="1" gradientUnits="userSpaceOnUse" gradientTransform="matrix(222.447,120.996,-80.306,147.64,67.708,142.271)">
			<stop offset="0" stop-color="#ffffff"/>
			<stop offset="1" stop-color="#fcfcfc"/>
		</linearGradient>
		<linearGradient id="g14" x2="1" gradientUnits="userSpaceOnUse" gradientTransform="matrix(222.124,120.82,-80.37,147.756,76.735,112.031)">
			<stop offset="0" stop-color="#ffffff"/>
			<stop offset="1" stop-color="#ffffff"/>
		</linearGradient>
		<linearGradient id="g15" x2="1" gradientUnits="userSpaceOnUse" gradientTransform="matrix(220.1,119.72,-79.097,145.417,81.063,103.322)">
			<stop offset="0" stop-color="#ffffff"/>
			<stop offset="1" stop-color="#ffffff"/>
		</linearGradient>
		<linearGradient id="g16" x2="1" gradientUnits="userSpaceOnUse" gradientTransform="matrix(240.295,130.704,-105.74,194.4,44.433,158.676)">
			<stop offset="0" stop-color="#ffffff"/>
			<stop offset="1" stop-color="#fafdfd"/>
		</linearGradient>
		<linearGradient id="g17" x2="1" gradientUnits="userSpaceOnUse" gradientTransform="matrix(237.18,129.01,-101.094,185.858,51.099,136.416)">
			<stop offset="0" stop-color="#ffffff"/>
			<stop offset="1" stop-color="#ffffff"/>
		</linearGradient>
		<linearGradient id="g18" x2="1" gradientUnits="userSpaceOnUse" gradientTransform="matrix(233.338,126.92,-97.185,178.671,57.808,121.645)">
			<stop offset="0" stop-color="#ffffff"/>
			<stop offset="1" stop-color="#ffffff"/>
		</linearGradient>
		<linearGradient id="g19" x2="1" gradientUnits="userSpaceOnUse" gradientTransform="matrix(227.859,123.94,-92.247,169.592,65.829,112.236)">
			<stop offset="0" stop-color="#ffffff"/>
			<stop offset="1" stop-color="#ffffff"/>
		</linearGradient>
		<linearGradient id="g20" x2="1" gradientUnits="userSpaceOnUse" gradientTransform="matrix(219.921,119.622,-33.823,62.182,93.985,74.969)">
			<stop offset="0" stop-color="#ffffff"/>
			<stop offset="1" stop-color="#ffffff"/>
		</linearGradient>
		<linearGradient id="g21" x2="1" gradientUnits="userSpaceOnUse" gradientTransform="matrix(219.921,119.622,-33.823,62.182,97.438,84.829)">
			<stop offset="0" stop-color="#ffffff"/>
			<stop offset="1" stop-color="#ffffff"/>
		</linearGradient>
		<linearGradient id="g22" x2="1" gradientUnits="userSpaceOnUse" gradientTransform="matrix(239.812,130.442,-99.504,182.934,86.994,48.631)">
			<stop offset="0" stop-color="#ffffff"/>
			<stop offset="1" stop-color="#ffffff"/>
		</linearGradient>
		<linearGradient id="g23" x2="1" gradientUnits="userSpaceOnUse" gradientTransform="matrix(221.118,120.274,-73.539,135.198,85.288,89.274)">
			<stop offset="0" stop-color="#ffffff"/>
			<stop offset="1" stop-color="#ffffff"/>
		</linearGradient>
		<linearGradient id="g24" x2="1" gradientUnits="userSpaceOnUse" gradientTransform="matrix(387.23,210.627,-343.979,632.392,-13.03,-32.515)">
			<stop offset="0" stop-color="#ffffff"/>
			<stop offset="1" stop-color="#ffffff"/>
		</linearGradient>
		<linearGradient id="g25" x2="1" gradientUnits="userSpaceOnUse" gradientTransform="matrix(223.345,121.485,-81.054,149.015,72.434,124.387)">
			<stop offset="0" stop-color="#ffffff"/>
			<stop offset="1" stop-color="#ffffff"/>
		</linearGradient>
		<linearGradient id="g26" x2="1" gradientUnits="userSpaceOnUse" gradientTransform="matrix(226.044,122.953,-106.06,194.987,111.215,67.31)">
			<stop offset="0" stop-color="#ffffff"/>
			<stop offset="1" stop-color="#ffffff"/>
		</linearGradient>
		<linearGradient id="g27" x2="1" gradientUnits="userSpaceOnUse" gradientTransform="matrix(227.675,123.84,-56.812,104.447,99.333,71.496)">
			<stop offset="0" stop-color="#ffffff"/>
			<stop offset="1" stop-color="#ffffff"/>
		</linearGradient>
		<linearGradient id="g28" x2="1" gradientUnits="userSpaceOnUse" gradientTransform="matrix(227.971,124.001,-69.97,128.637,90.963,64.97)">
			<stop offset="0" stop-color="#ffffff"/>
			<stop offset="1" stop-color="#ffffff"/>
		</linearGradient>
		<linearGradient id="g29" x2="1" gradientUnits="userSpaceOnUse" gradientTransform="matrix(410.892,102.187,-97.204,390.857,350.334,122.103)">
			<stop offset="0" stop-color="#ffffff"/>
			<stop offset="1" stop-color="#ffffff"/>
		</linearGradient>
		<linearGradient id="g30" x2="1" gradientUnits="userSpaceOnUse" gradientTransform="matrix(533.956,132.793,-184.616,742.336,318.449,101.569)">
			<stop offset="0" stop-color="#ffffff"/>
			<stop offset="1" stop-color="#ffffff"/>
		</linearGradient>
		<linearGradient id="g31" x2="1" gradientUnits="userSpaceOnUse" gradientTransform="matrix(480.089,119.396,-159.377,640.851,322.242,56.739)">
			<stop offset="0" stop-color="#ffffff"/>
			<stop offset="1" stop-color="#ffffff"/>
		</linearGradient>
		<linearGradient id="g32" x2="1" gradientUnits="userSpaceOnUse" gradientTransform="matrix(491.058,122.124,-132.234,531.708,298.398,57.006)">
			<stop offset="0" stop-color="#ffffff"/>
			<stop offset="1" stop-color="#ffffff"/>
		</linearGradient>
		<linearGradient id="g33" x2="1" gradientUnits="userSpaceOnUse" gradientTransform="matrix(413.267,102.778,-220.422,886.312,378.877,-2.837)">
			<stop offset="0" stop-color="#ffffff"/>
			<stop offset="1" stop-color="#ffffff"/>
		</linearGradient>
	</defs>
	<style>
		.s0 { fill: url(#g1) } 
		.s1 { fill: url(#g2) } 
		.s2 { fill: url(#g3) } 
		.s3 { fill: url(#g4) } 
		.s4 { fill: url(#g5) } 
		.s5 { fill: url(#g6) } 
		.s6 { fill: url(#g7) } 
		.s7 { fill: url(#g8) } 
		.s8 { fill: url(#g9) } 
		.s9 { fill: url(#g10) } 
		.s10 { fill: url(#g11) } 
		.s11 { fill: url(#g12) } 
		.s12 { fill: url(#g13) } 
		.s13 { fill: url(#g14) } 
		.s14 { fill: url(#g15) } 
		.s15 { fill: url(#g16) } 
		.s16 { fill: url(#g17) } 
		.s17 { fill: url(#g18) } 
		.s18 { fill: url(#g19) } 
		.s19 { fill: url(#g20) } 
		.s20 { fill: url(#g21) } 
		.s21 { fill: url(#g22) } 
		.s22 { fill: url(#g23) } 
		.s23 { fill: url(#g24) } 
		.s24 { fill: url(#g25) } 
		.s25 { fill: url(#g26) } 
		.s26 { fill: url(#g27) } 
		.s27 { fill: url(#g28) } 
		.s28 { fill: url(#g29) } 
		.s29 { fill: url(#g30) } 
		.s30 { fill: url(#g31) } 
		.s31 { fill: url(#g32) } 
		.s32 { fill: url(#g33) } 
	</style>
	<g id="Layer 1">
		<g id="&lt;Group&gt;">
			<path id="&lt;Path&gt;" class="s0" d="m265 140.8c1.3 1 3.1 0.8 4.2-0.6q3.7-4.6 7.3-9.3c0.3-0.3 0.5-0.8 0.6-1.2 0.3-1.4-0.4-2.7-1.5-3.2-1.3-0.6-2.7-0.3-3.7 0.8q-1.8 2.3-3.6 4.7-1.9 2.3-3.7 4.6c-1.1 1.4-0.9 3.2 0.4 4.2z"/>
			<path id="&lt;Path&gt;" class="s1" d="m234.1 118.5q0.5 5.8 1.1 11.7c0.2 1.5 1.4 2.5 2.9 2.6 1.4 0 2.6-1.1 2.9-2.7 0-0.2 0-0.5 0-0.9q-0.4-3.5-0.7-7-0.6-6.1-1.2-12.2c-0.1-1.2-0.7-2-1.7-2.5-2.2-1-4.3 0.7-4.1 3.2q0.4 3.9 0.8 7.8z"/>
			<path id="&lt;Path&gt;" class="s2" d="m257.6 136c1.3 0.2 2.5-0.4 3.1-1.7q2.4-5.2 4.8-10.5 1.7-3.6 3.3-7.3c0.8-1.7 0.2-3.4-1.4-4.1-1.6-0.7-3.1 0-3.9 1.8q-3.1 6.7-6.2 13.5c-0.6 1.3-1.2 2.7-1.8 4.1-0.9 2 0.1 3.9 2.1 4.2z"/>
			<path id="&lt;Path&gt;" class="s3" d="m216.9 138.7c0.9 1.2 2.7 1.5 4 0.7 1.2-0.9 1.6-2.8 0.8-4q-2-2.8-4-5.6-3.8-5.3-7.6-10.6c-0.8-1.1-1.9-1.4-3.1-1.2-1.2 0.2-2 1.2-2.2 2.5-0.2 1 0.3 1.8 0.9 2.7q5.6 7.7 11.2 15.5z"/>
			<path id="&lt;Path&gt;" class="s4" d="m225 132c0.3 0.7 0.5 1.4 0.9 1.9 0.8 1.2 2.5 1.5 3.7 0.8 1.3-0.7 1.8-2.2 1.2-3.8q-2-5.5-4.1-11c-0.4-1-1.2-1.7-1.8-1.8-2.6-0.4-4.4 1.6-3.7 3.8 1.2 3.4 2.5 6.8 3.8 10.1z"/>
			<path id="&lt;Path&gt;" class="s5" d="m247.8 133.1c1.7 0.2 3.1-0.8 3.4-2.5q1-5.9 1.9-11.7c0.1-0.5 0.1-1-0.1-1.4-0.4-1.4-1.6-2.2-2.8-2.1-1.5 0.1-2.6 1-2.8 2.5q-0.5 2.9-1 5.8-0.5 3-1 5.9c-0.2 1.7 0.8 3.2 2.4 3.5z"/>
			<g id="&lt;Group&gt;">
				<path id="&lt;Path&gt;" class="s6" d="m270 191.6c-1.1 1.2-0.9 3 0.4 4.1q4.5 3.9 9 7.7c0.4 0.3 0.8 0.5 1.3 0.6 1.3 0.3 2.7-0.3 3.2-1.4 0.7-1.3 0.4-2.7-0.7-3.7q-2.3-1.9-4.5-3.8-2.3-1.9-4.6-3.8c-1.3-1.1-3.1-1-4.1 0.3z"/>
				<path id="&lt;Path&gt;" class="s7" d="m275.8 156.1c0.6 1.5 2.3 2.2 3.9 1.6q5.5-2.2 11-4.4c0.4-0.1 0.9-0.4 1.2-0.8 0.9-1 1-2.5 0.3-3.5-0.9-1.2-2.2-1.6-3.7-1.1q-2.7 1.1-5.4 2.2-2.8 1.1-5.6 2.2c-1.6 0.6-2.3 2.3-1.7 3.8z"/>
				<path id="&lt;Path&gt;" class="s8" d="m116.4 186.1l33.6 2.7c0.6 0.1 1.1-0.1 1.4-0.3l3.6-3.4c0.2-0.3 0.3-0.6 0.1-1l-8-21.1c-0.2-0.4-0.5-0.8-1-1.2l-6.5-4.5c-0.5-0.3-1.1-0.6-1.6-0.7l-33.8-6.4c-0.7-0.2-1.4-0.1-1.8 0.1l-5.4 2.8c-0.4 0.3-0.6 0.7-0.4 1.1l8.2 24.9c0.1 0.4 0.6 0.9 1.3 1.3l8.2 5c0.6 0.4 1.4 0.7 2.1 0.7z"/>
				<path id="&lt;Path&gt;" class="s9" d="m157.7 184.3c0.2 0.4 0.6 0.8 1 1.2l6.2 4.1c0.4 0.3 1 0.5 1.5 0.5l23.8 1.9c0.5 0 0.8-0.1 1-0.3l1.8-2.3 0.5-0.6c0.1-0.3 0.1-0.6 0-0.9l-1.4-3.3-3.3-7.7-2.3-5.7-0.7-1.5c-0.1-0.3-0.4-0.6-0.8-0.9l-5-3.8c-0.4-0.3-0.9-0.5-1.3-0.6l-24.2-4.6c-0.5-0.1-1-0.1-1.2 0.1l-3.4 2.6c-0.3 0.2-0.4 0.6-0.2 1z"/>
				<path id="&lt;Path&gt;" class="s10" d="m188.2 171.1l2.4 5.6 3 7.1 1.8 4.3c0.1 0.3 0.4 0.6 0.8 0.9q0 0 0 0l4.8 3.5c0.4 0.3 0.8 0.4 1.2 0.5h0.8l6.6 0.6 2.4 0.1 4.1 0.4 3.9 0.3q0.4 0 0.6-0.3l0.8-1.4 0.7-1.2q0.2-0.3 0-0.8l-0.7-1.6-1.7-3.7-4.8-10.6c-0.1-0.3-0.4-0.6-0.7-0.9l-0.4-0.3-3.3-2.6-0.4-0.3q0-0.1-0.1-0.1-0.5-0.3-0.9-0.4l-18.2-3.5c-0.4 0-0.7 0-0.9 0.2l-2.2 2.4c-0.2 0.1-0.2 0.4 0 0.8z"/>
				<path id="&lt;Path&gt;" class="s11" d="m221.1 185.5l2.4 5.3q0.2 0.4 0.6 0.8 0 0 0.1 0.1l3.7 2.8 0.2 0.2c0.3 0.2 0.7 0.4 1 0.4l2.6 0.2 3.9 0.3 5.5 0.5 1.7 0.1q0.1 0 0.2 0 0.2 0 0.3-0.3l0.2-0.5 0.8-1.8q0.1-0.3-0.1-0.7l-0.3-0.7-2-4.1-4.4-9.4c-0.1-0.2-0.4-0.5-0.6-0.7l-3.4-2.9c-0.3-0.2-0.6-0.3-0.8-0.4l-10.6-2-3.6-0.7q-0.5-0.1-0.7 0.2l-1.5 2.1q-0.1 0.3 0.1 0.8z"/>
				<path id="&lt;Path&gt;" class="s12" d="m130.5 227.4l33.3-2c0.6 0 1-0.2 1.3-0.6l3.4-4.3c0.2-0.3 0.3-0.8 0.1-1.2l-8.7-22.7c-0.1-0.4-0.5-0.8-1-1.2l-6.5-4.1c-0.5-0.4-1.1-0.6-1.7-0.6l-33.6-2.5c-0.7 0-1.3 0.1-1.7 0.4l-5.3 4.1c-0.4 0.3-0.6 0.8-0.4 1.3l8.9 27.1c0.2 0.5 0.7 1 1.4 1.4l8.3 4.5c0.7 0.3 1.5 0.5 2.2 0.4z"/>
				<path id="&lt;Path&gt;" class="s13" d="m208.9 218.8l4.8 3.2c0.3 0.2 0.7 0.4 1 0.4q0.1 0 0.1 0l6.2-0.4 10.8-0.6 0.3-0.1q0.4 0 0.6-0.4l1.3-3.1c0.1-0.3 0.1-0.6-0.1-0.9l-2.1-4.7-1.5-3.2-1.7-3.9-0.1-0.3-1.5-3.2-0.7-1.5c-0.1-0.3-0.4-0.6-0.7-0.9l-0.4-0.3-3.6-2.7q-0.2-0.2-0.4-0.3-0.3-0.1-0.6-0.1l-5.9-0.5-4.5-0.3h-0.8l-6.6-0.5c-0.3-0.1-0.6 0.1-0.8 0.3l-2.1 3c-0.1 0.2-0.1 0.5 0 0.9l1.2 2.8 6.9 16.3c0.2 0.4 0.5 0.8 0.9 1z"/>
				<path id="&lt;Path&gt;" class="s14" d="m249.1 203.1l-0.9-1.9c-0.1-0.2-0.4-0.5-0.6-0.7l-0.8-0.6-2.5-2-0.1-0.1c-0.3-0.2-0.5-0.4-0.8-0.4l-3.6-0.2-3.8-0.3-4.9-0.4-1.4-0.1q-0.5 0-0.6 0.3l-0.4 0.7-1 1.9c-0.1 0.3-0.1 0.5 0.1 0.9l1.2 2.7 2.6 5.8 0.6 1.2 3.1 6.9c0.2 0.4 0.4 0.7 0.7 0.9l0.7 0.5 3.2 2.3c0.3 0.2 0.6 0.3 0.9 0.3l3.3-0.2 5.8-0.3 4.2-0.3q0.3 0 0.4-0.3l0.9-2.8q0.1-0.3-0.1-0.8l-3-6.2z"/>
				<path id="&lt;Path&gt;" class="s15" d="m173.8 232.8c-0.2-0.5-0.5-0.9-1-1.2l-6.6-3.7c-0.5-0.3-1.1-0.5-1.6-0.4l-33.3 2.2c-0.8 0.1-1.4 0.3-1.8 0.7l-5.1 5.5c-0.4 0.4-0.5 1-0.4 1.5l9.9 29.8c0.2 0.6 0.6 1.1 1.3 1.4l8.5 3.8c0.7 0.3 1.4 0.4 2.1 0.2l32.9-7.5c0.5-0.2 1-0.5 1.2-0.9l3.2-5.5c0.2-0.4 0.3-0.9 0.1-1.4z"/>
				<path id="&lt;Path&gt;" class="s16" d="m211 229.4c-0.1-0.4-0.4-0.8-0.8-1l-5-3.3c-0.4-0.2-0.9-0.4-1.3-0.3l-23.3 1.6c-0.5 0-0.9 0.2-1.1 0.5l-3 4.4c-0.3 0.4-0.3 0.8-0.2 1.3l9.4 24.2c0.2 0.5 0.6 0.9 1 1.1l6.2 3.3c0.5 0.3 1 0.4 1.5 0.3l22.7-5.2c0.4-0.1 0.7-0.4 0.8-0.7l1.9-4.5c0.1-0.3 0.1-0.7 0-1.1z"/>
				<path id="&lt;Path&gt;" class="s17" d="m238.4 226.8c-0.1-0.3-0.4-0.6-0.7-0.8l-4-2.9c-0.3-0.2-0.7-0.3-1-0.3l-12.5 0.9-4.7 0.3q-0.1 0-0.3 0-0.3 0.1-0.5 0.5l-1.9 3.6c-0.1 0.3-0.1 0.7 0.1 1.1l8.6 20.4c0.2 0.4 0.5 0.8 0.9 1l4.8 2.9c0.3 0.2 0.7 0.3 1.1 0.2l16.6-3.8c0.3-0.1 0.5-0.3 0.6-0.6l1.1-3.7c0.1-0.3 0-0.6-0.1-1z"/>
				<path id="&lt;Path&gt;" class="s18" d="m250.1 221.6l-5.9 0.4-2.7 0.2q-0.5 0.1-0.6 0.4l-1.2 3.2c-0.1 0.2 0 0.6 0.1 0.9l8 17.6c0.2 0.4 0.4 0.7 0.7 0.9l3.9 2.6c0.3 0.2 0.6 0.2 0.9 0.2l12.6-2.9q0.4-0.1 0.4-0.5l0.7-3.2c0.1-0.3 0-0.6-0.1-0.9l-7.5-15.6c-0.1-0.3-0.3-0.6-0.6-0.8l-3.3-2.5c-0.3-0.2-0.6-0.3-0.8-0.3z"/>
				<path id="&lt;Path&gt;" class="s19" d="m296.4 190.2q-6.7-3-13.4-6.1c-1.5-0.7-3-1.4-4.6-2-1.8-0.6-3.5 0.5-3.8 2.2-0.2 1.4 0.4 2.5 1.6 3.2q1.3 0.6 2.6 1.1 7.6 3.5 15.2 6.9c1.1 0.5 2.1 0.6 3.1 0 1-0.7 1.5-1.6 1.3-2.8-0.1-1.2-0.8-2-2-2.5z"/>
				<path id="&lt;Path&gt;" class="s20" d="m187.1 147q1.3 0.6 2.6 1.1 7.6 3.5 15.2 7c1.1 0.4 2.1 0.5 3.1-0.1 1-0.7 1.5-1.6 1.3-2.8-0.1-1.2-0.9-2-2-2.5q-6.7-3-13.4-6.1c-1.6-0.7-3-1.4-4.6-2-1.8-0.6-3.5 0.5-3.8 2.2-0.2 1.4 0.4 2.5 1.6 3.2z"/>
				<path id="&lt;Path&gt;" class="s21" d="m302.9 161.2c-0.7-1-1.8-1.2-2.9-1.1q-4 0.4-7.9 0.8-5.8 0.5-11.6 1.1c-1.4 0.2-2.3 1.1-2.6 2.4-0.3 2 1.2 3.5 3.3 3.4 0.9-0.1 1.9-0.2 2.8-0.3q8.4-0.8 16.7-1.6 1.7-0.2 2.4-1.7c0.6-1 0.4-2-0.2-3z"/>
				<path id="&lt;Path&gt;" class="s22" d="m263 198.1c-1.4 0.9-1.6 2.8-0.6 4.2 1.1 1.5 2.2 3.1 3.3 4.6 2.8 3.8 5.5 7.7 8.2 11.5 0.8 1 1.9 1.3 3.1 1 1.1-0.3 1.8-1.1 2.1-2.3 0.1-0.9-0.1-1.7-0.6-2.4q-5.7-7.9-11.4-15.8c-1-1.4-2.8-1.8-4.1-0.8z"/>
				<path id="&lt;Path&gt;" class="s23" d="m271.2 147.4c0.6 1.2 2.2 1.8 3.5 1.3 0.5-0.2 1-0.6 1.5-1q3.9-2.8 7.8-5.6c2.5-1.8 5.1-3.5 7.6-5.4 1-0.7 1.3-1.9 1-3.1-0.3-1.2-1.2-1.8-2.3-2-0.9-0.2-1.7 0.1-2.4 0.6q-5.2 3.7-10.4 7.4-2.7 2-5.5 4c-1.2 0.9-1.6 2.4-0.8 3.8z"/>
				<path id="&lt;Path&gt;" class="s24" d="m198 198.6c-0.1-0.4-0.4-0.7-0.8-1l-0.3-0.2-4.7-3.3c-0.4-0.3-0.9-0.5-1.3-0.5l-23.8-1.7c-0.5-0.1-0.9 0.1-1.2 0.3l-3.2 3.5c-0.3 0.2-0.3 0.6-0.2 1l8.7 22.5c0.2 0.4 0.5 0.8 1 1.1l6.2 3.8c0.4 0.2 1 0.4 1.5 0.4l23.3-1.4c0.4-0.1 0.7-0.2 0.9-0.5l2.1-3.7c0.2-0.3 0.2-0.6 0-1l-6.5-15.4z"/>
				<path id="&lt;Compound Path&gt;" fill-rule="evenodd" class="s25" d="m258.7 204.9l20.9 44.4-148.6 41.5-11.3 0.8-44.9-145.8 6.6-10.3 109.5 22.1 14.8 2.9 5.5 1.1c3.6-15.9 19.3-26.7 35.7-24 17.3 2.8 29 19 26.2 36.2-1.8 10.8-8.8 19.4-18 23.6l3 6.3q0.2 0.3 0.4 0.7 0.1 0.3 0.2 0.5zm-42.8-42.3l1.3 0.2 3.9 0.8 20 4 0.4 1 8.7 18.5 1.8 3.6 1.1 2.3c7.8-3.6 13.8-10.9 15.3-20 2.3-14.5-7.7-28.4-22.1-30.7-14-2.3-27.3 6.8-30.4 20.3zm39 43.9l-1.5-3.1-2.1-4.6-1.7-3.4-0.4-0.9-1.3-2.7-1.8-3.8-7.8-16.8-17.2-3.4-4.1-0.8-1.8-0.4-2.7-0.5-1.9-0.4-5.4-1.1-12.9-2.6-3.5-0.7-103.5-20.8 46.7 145.8 141.8-39.6-12.9-27.4z"/>
				<path id="&lt;Path&gt;" class="s26" d="m200.6 138.5q4.6 3.8 9.2 7.6c0.8 0.7 1.7 0.9 2.8 0.6 1.1-0.3 1.8-1.1 2-2.2 0.2-1.1-0.1-2.1-1-2.8-1.2-1-2.5-2-3.8-3.1-1.9-1.5-3.7-3.1-5.6-4.6-1.7-1.4-4.2-0.3-4.6 1.8-0.2 1.1 0.1 2 1 2.7z"/>
				<path id="&lt;Path&gt;" class="s27" d="m280.2 178q5.7 0.9 11.5 1.9c1.7 0.3 3.3-0.8 3.5-2.4 0.3-1.6-0.8-3.1-2.6-3.4q-2.8-0.4-5.7-0.9-2.9-0.5-5.8-1c-1.8-0.2-3.3 0.8-3.5 2.4-0.3 1.7 0.8 3.1 2.6 3.4z"/>
			</g>
		</g>
		<g id="&lt;Group&gt;">
			<path id="&lt;Compound Path&gt;" class="s28" d="m373.7 145.9l20.6 52.9 3.9 10.5h0.4l3.7-10.4 20.8-53h31.5v103.5h-26.3v-43.6l0.2-11.2-0.4-0.1-3.8 10.6-17 44.3h-18.9l-17-44.6-3.8-10.6-0.2 0.2 0.1 11.1v43.9h-25.4v-103.5z"/>
			<path id="&lt;Compound Path&gt;" class="s29" d="m498.8 247.5l0.3-0.8-35.9-81.8h30.1l14.9 45.1 3.3 10.6h0.4l2.4-10.9 10.6-44.8h28.2l-27.6 81.8c-6.5 18.9-17.6 26.5-33.9 26.5-5.4 0-10.5-0.8-15.2-2.6l2-18c3 1.3 5.5 1.7 8.4 1.7 5.5 0 9.7-1.4 12-6.8z"/>
			<path id="&lt;Compound Path&gt;" class="s30" d="m591.3 251.4c-12 0-23.6-2.8-33-7.6l3.6-23.9c9.4 4.7 19.1 7.5 29.1 7.5 9.3 0 12.9-2.8 12.9-7.9 0-12.7-45.5-7.3-45.5-42.3 0-18.2 11.8-33.1 39.5-33.1 10.4 0 21.7 1.9 30.1 5.2l-3.3 23.4c-9-2.6-17.8-4-25.1-4-11.2 0-13.4 3-13.4 7 0 12.9 45.3 7.1 45.3 42 0 20.7-15.2 33.7-40.2 33.7z"/>
			<path id="&lt;Compound Path&gt;" fill-rule="evenodd" class="s31" d="m677.9 251.4c-27.6 0-39.9-12.9-39.9-43.8 0-30.9 12.4-44.2 40-44.2 27.8 0 39.8 13.3 39.8 44.2 0 30.9-12 43.8-39.9 43.8zm0.1-20.7c9.1 0 12.3-4.5 12.3-23.1 0-18.9-3.2-23-12.3-23-9.2 0-12.4 4.1-12.4 23 0 18.8 3.3 23.1 12.4 23.1z"/>
			<path id="&lt;Compound Path&gt;" class="s32" d="m729.2 249.4v-106.7l26.9-1.2v107.9z"/>
		</g>
	</g>
</svg>