<svg width="15" height="15" viewBox="0 0 15 15" fill="none" xmlns="http://www.w3.org/2000/svg">
<path d="M11.3482 10.5222C10.5857 11.1321 9.51825 11.5896 8.45078 11.5896C6.01086 11.5896 4.33341 9.75969 4.33341 7.31976C4.33341 4.87984 6.01086 3.2024 8.45078 3.2024C9.51825 3.2024 10.5857 3.50739 11.3482 4.26986L11.8057 4.72735L14.2456 2.43992L13.6356 1.98243C12.2632 0.762473 10.4332 0 8.45078 0C4.18092 0 0.978516 3.2024 0.978516 7.47226C0.978516 11.7421 4.18092 14.9445 8.45078 14.9445C10.4332 14.9445 12.2632 14.182 13.6356 12.9621L14.2456 12.5046L11.8057 10.0647L11.3482 10.5222Z" fill="#FFFEFD"/>
<path d="M8.29857 9.9122C9.6461 9.9122 10.7385 8.81981 10.7385 7.47228C10.7385 6.12475 9.6461 5.03236 8.29857 5.03236C6.95103 5.03236 5.85864 6.12475 5.85864 7.47228C5.85864 8.81981 6.95103 9.9122 8.29857 9.9122Z" fill="#FFFEFD"/>
</svg>
