<svg fill="none" height="22" viewBox="0 0 22 22" width="22" xmlns="http://www.w3.org/2000/svg"><g fill="#fffefd"><path d="m6.875 0h8.25c3.7964 0 6.875 3.07863 6.875 6.875v8.25c0 3.7964-3.0786 6.875-6.875 6.875h-8.25c-3.79637 0-6.875-3.0786-6.875-6.875v-8.25c0-3.79637 3.07863-6.875 6.875-6.875zm-4.8125 15.125c0 2.6538 2.15875 4.8125 4.8125 4.8125h8.25c2.6538 0 4.8125-2.1587 4.8125-4.8125v-8.25c0-2.65375-2.1587-4.8125-4.8125-4.8125h-8.25c-2.65375 0-4.8125 2.15875-4.8125 4.8125z"/><path d="m11 5.5c3.0374 0 5.5 2.46263 5.5 5.5 0 3.0374-2.4626 5.5-5.5 5.5-3.03737 0-5.5-2.4626-5.5-5.5 0-3.03737 2.46263-5.5 5.5-5.5zm0 8.9375c1.8948 0 3.4375-1.5427 3.4375-3.4375 0-1.89612-1.5427-3.4375-3.4375-3.4375-1.89475 0-3.4375 1.54138-3.4375 3.4375 0 1.8948 1.54275 3.4375 3.4375 3.4375z"/><path d="m16.9125 5.82038c-.4048 0-.7329-.32812-.7329-.73287 0-.40476.3281-.73288.7329-.73288s.7329.32812.7329.73288c0 .40475-.3281.73287-.7329.73287z"/></g></svg>