<svg fill="none" height="20" viewBox="0 0 21 20" width="21" xmlns="http://www.w3.org/2000/svg"><path d="m21 12.262v7.738h-4.501v-7.2198c0-1.8136-.651-3.05139-2.2802-3.05139-1.2437 0-1.9838.83419-2.3094 1.64109-.1188.2884-.1493.6899-.1493 1.0937v7.5364h-4.50252s.06064-12.22792 0-13.49482h4.50202v1.91283c-.0091.01431-.021.02974-.0296.0436h.0296v-.0436c.5982-.91819 1.6664-2.22986 4.0574-2.22986 2.9623-.00005 5.183 1.92875 5.183 6.07385zm-18.45222-12.262c-1.5403 0-2.54778 1.00695-2.54778 2.33113 0 1.29532.978334 2.33284 2.48802 2.33284h.03007c1.57013 0 2.54661-1.03732 2.54661-2.33284-.02959-1.32418-.97648-2.33113-2.51692-2.33113zm-2.280371 20h4.500781v-13.49482h-4.500781z" fill="#fffefd"/></svg>