<svg width="68" height="24" xmlns="http://www.w3.org/2000/svg"><path d="M67.185 9.646C58.234 6.67 47.766 4.823 33.594 4.823 19.42 4.823 8.954 6.67 0 9.646 9.002 3.636 20.747 0 33.594 0c12.846 0 24.59 3.636 33.591 9.646zm-38.743 3.125c.562 0 1.032.408 1.03 1.153v8.042c0 1.533-.914 1.743-1.417 1.743a1.648 1.648 0 01-1.234-.465s-5.107-4.617-5.726-5.153c-.62-.537-1.026-.79-1.461-.655-.482.15-.56.54-.649 1.04l-.7 4.276a1.028 1.028 0 01-1.116.956.973.973 0 01-.912-1.03v-8.074c0-1.303.825-1.836 1.684-1.836.415 0 .816.15 1.128.421l6.072 5.163c.383.332.834.585 1.204.42.37-.164.398-.561.449-.945.084-.635.465-3.143.562-3.867.086-.655.425-1.19 1.086-1.19zm-15.137 8.604c.634-.137 1.057.059 1.194.583.154.583-.32.96-.842 1.139C8.143 24.996.62 23.436.62 18.324c0-3.604 3.208-5.81 7.63-5.81 4.886 0 6.557 2.79 6.557 4.631 0 1.164-.499 1.729-1.51 1.729-1.53-.005-4.616-.03-5.83-.03-.85-.004-1.165-.484-1.165-.905 0-.533.394-.926 1.13-.954 1.298-.048 2.858-.097 3.69-.147.9-.053 1.029-.703.57-1.181-.744-.764-2.173-1.148-4-1.002-1.746.14-3.956 1.111-3.956 3.497 0 3.157 5.105 4.183 9.568 3.223zm51.77 0c.634-.137 1.058.059 1.192.583.154.583-.32.96-.842 1.139-5.511 1.899-13.033.339-13.033-4.773 0-3.604 3.208-5.81 7.63-5.81 4.885 0 6.555 2.79 6.555 4.631 0 1.164-.497 1.729-1.51 1.729-1.53-.005-4.614-.03-5.83-.03-.848-.004-1.163-.484-1.163-.905 0-.533.393-.926 1.13-.954 1.297-.048 2.857-.097 3.687-.147.903-.053 1.031-.703.572-1.181-.74-.764-2.17-1.148-4-1.002-1.743.14-3.956 1.111-3.956 3.497 0 3.157 5.108 4.183 9.569 3.223zm-17.208-4.916c0-.083.058-.156.14-.173l2.905-.47a.162.162 0 01.21.183 134.352 134.352 0 01-.474 6.378c-.094 1.063-.623 1.335-1.168 1.335-.545 0-1.082-.29-1.177-1.344-.074-.81-.337-3.122-.436-5.909zm1.621-3.952a1.63 1.63 0 011.73 1.693c-.012.07-.012.215-.012.358a.175.175 0 01-.147.166l-3.032.493a.179.179 0 01-.21-.166c-.02-.411-.034-.74-.034-.86a1.606 1.606 0 011.705-1.684zm-4.454 4.445c1.059 0 1.688.473 1.684 1.71 0 2.429-2.486 5.207-7.592 5.207-4.572 0-8.24-1.84-8.24-5.629 0-3.541 3.68-5.733 8.272-5.733 1.45-.019 2.898.154 4.303.514.775.204 1.16.583 1.002 1.173-.147.555-.737.663-1.337.579-6.819-.967-9.115 1.305-9.115 3.368 0 2.194 2.682 3.579 5.12 3.579 1.863 0 3.66-.63 4.4-1.59.368-.48.353-1.04-.735-1.094-.809-.042-2.56-.124-3.935-.196-.903-.046-1.164-.53-1.164-.905 0-.432.242-.954 1.21-.954 1.996-.004 5.116-.03 6.127-.03z" fill="#FFF" fill-rule="evenodd"/></svg>