<svg width="270" height="272" viewBox="0 0 270 272" fill="none" xmlns="http://www.w3.org/2000/svg">
<g clip-path="url(#clip0_102_22)">
<path d="M151.334 34.7307C189.895 34.406 220.816 49.163 241.351 81.7218C263.071 116.155 263.321 152.205 243.063 187.524C224.348 220.158 187.202 239.576 151.334 236.782C151.334 169.655 151.334 102.507 151.334 34.7307ZM165.415 125.194C166.883 123.652 167.817 122.704 168.717 121.73C178.71 110.891 188.69 100.045 198.704 89.2254C199.516 88.3458 200.145 86.9791 201.485 86.9452C206.228 86.8505 210.971 86.9047 216.35 86.9047C203.725 100.694 191.674 113.848 179.597 127.035C194.834 141.846 209.801 156.4 225.39 171.549C220.052 171.549 215.593 171.455 211.134 171.59C209.165 171.651 207.825 170.988 206.431 169.628C193.704 157.205 180.903 144.857 168.094 132.529C167.377 131.839 166.802 130.756 165.32 130.716C165.32 144.363 165.32 157.841 165.32 171.428C163.946 171.522 162.756 171.604 161.443 171.692C161.443 190.089 161.443 208.263 161.443 226.443C202.602 225.449 247.177 189.94 247.157 135.892C247.137 81.715 202.419 46.328 161.517 45.3875C161.517 59.1566 161.517 72.919 161.517 86.5528C162.871 87.2294 164.217 86.4243 165.422 87.3647C165.415 99.6792 165.415 112.027 165.415 125.194Z" fill="#434244"/>
<path d="M57.3184 82.4796C47.9134 78.7108 38.7656 75.0503 29.5906 71.3763C54.5578 24.2905 105.906 -3.43725 157.776 0.121758C157.776 9.81768 157.776 19.5271 157.776 29.6696C137.41 28.6411 118.072 32.1799 100.02 41.7134C82.0623 51.2064 68.0022 64.7861 57.3184 82.4796Z" fill="#4385F3"/>
<path d="M68.2051 171.563C80.9864 156.244 93.2332 141.575 105.663 126.669C96.5486 113.53 87.4887 100.471 78.0635 86.8911C85.919 86.8911 93.1858 86.9114 100.453 86.8776C102.178 86.8708 102.625 88.2443 103.369 89.3066C111.482 100.769 119.581 112.237 128.248 124.497C128.248 111.486 128.248 99.3476 128.248 87.0806C135.603 87.0806 142.525 87.0806 149.602 87.0806C149.602 115.241 149.602 143.213 149.602 171.38C142.532 171.38 135.61 171.38 128.438 171.38C128.438 158.579 128.438 145.906 128.438 132.833C126.678 133.564 126.002 134.89 125.136 135.912C115.954 146.718 106.752 157.516 97.6921 168.423C95.8247 170.677 93.9369 171.746 90.8989 171.644C83.6117 171.401 76.3042 171.563 68.2051 171.563Z" fill="#434244"/>
<path d="M157.762 272.129C106.448 273.373 66.067 253.204 35.714 211.693C43.9687 205.685 51.919 199.9 59.9978 194.027C83.9094 227.878 116.509 243.711 157.762 242.371C157.762 252.25 157.762 261.966 157.762 272.129Z" fill="#FE0162"/>
<path d="M57.4808 190.278C56.8786 190.772 56.3846 191.225 55.8501 191.611C48.4885 196.956 41.1202 202.295 33.7518 207.633C9.69809 172.449 5.57748 118.394 27.5202 75.321C36.6004 78.9409 45.7212 82.5743 54.9637 86.2619C38.4205 121.439 38.4678 155.933 57.4808 190.278Z" fill="#FABB07"/>
</g>
<defs>
<clipPath id="clip0_102_22">
<rect width="244.935" height="272" fill="white" transform="translate(13)"/>
</clipPath>
</defs>
</svg>
