<svg width="90" height="90" viewBox="0 0 90 90" fill="none" xmlns="http://www.w3.org/2000/svg">
<path d="M47.5295 57.0406C42.9179 53.5887 37.9279 50.931 33.5609 49.4775C31.7458 48.8734 29.8936 48.127 27.9531 48.0484M53.971 56.367C52.7366 55.2043 51.5268 54.0455 50.1749 53.0163C44.8314 48.9479 39.0397 45.959 32.6586 43.9823M39.6702 10.5722C38.7689 11.9718 37.8031 13.4095 37.0407 14.886M32.6301 13.9326C33.5038 14.2898 34.3463 14.7193 35.1784 15.1636M37.963 16.4589C38.8493 17.0983 39.8055 17.5132 40.7706 18.007M34.1301 20.5082C34.4254 19.4785 34.9153 18.0496 35.6332 17.2121M50.7301 69.2177C50.1932 69.937 49.7306 70.708 49.263 71.4734M46.2123 71.2468C46.627 71.3971 47.0396 71.5467 47.4482 71.7124M48.1271 73.4195C47.6579 74.2586 47.2597 75.1309 46.8093 75.9791M49.5145 73.1449C50.139 73.4055 50.7708 73.6593 51.3804 73.9532M69.7037 31.1384C70.5803 28.6284 71.4178 26.7981 69.7394 24.4408C72.0006 24.8817 74.6265 23.0113 75.9053 21.2299C75.3521 23.2575 74.5806 25.5638 75.3997 27.6229C73.1556 27.4666 70.9895 29.0845 69.8247 30.893M36.6906 69.3201C35.9182 71.2713 35.1767 73.1445 34.6038 74.3566C35.7623 75.6922 38.4265 79.0219 39.4529 81.8041C35.7627 80.4298 19.6308 72.0018 17.9012 70.7587C21.0306 70.4929 24.4376 70.5229 27.5433 70.9215C28.5656 68.7314 29.7028 66.7525 30.909 64.6534C31.8624 62.9943 32.859 61.2601 33.876 59.2872C33.6346 59.1065 33.2515 58.7762 32.8723 58.4493C32.5176 58.1435 32.1663 57.8406 31.9379 57.6662C29.0869 55.4893 27.6461 52.6081 27.1006 49.5178C24.3501 49.401 22.1133 46.8191 20.883 44.6284C18.3006 40.0301 15.7529 32.103 20.8391 28.1859C23.8746 25.8482 29.3523 27.332 32.4856 28.702C33.362 27.3486 34.4323 26.139 35.7823 25.6448C38.23 24.7486 41.3589 25.4063 43.7408 26.1768C49.0366 27.8901 54.128 30.3104 58.4732 33.8658C58.5785 33.9516 58.6901 34.0422 58.8072 34.1372C60.7662 35.7262 64.2748 38.5721 65.7528 41.6846C66.0695 42.4317 66.2422 43.1955 66.214 43.9655C66.1887 44.6542 65.8002 45.8137 65.1087 47.2339C65.4524 47.537 65.83 47.8557 66.2262 48.19C68.816 50.3758 72.1932 53.2261 71.9902 56.7059C71.7974 60.0103 69.061 61.886 66.399 63.2571C61.4227 65.8202 53.2468 68.2321 49.0922 62.7759C47.6735 63.2129 46.2125 63.4267 44.7283 63.3511C43.2414 63.2753 41.4524 62.9306 39.7007 62.3323C38.8793 63.7911 37.7555 66.6298 36.6906 69.3201ZM21.4639 40.0937C19.971 36.9589 20.134 29.249 25.1616 29.8559C27.0166 30.0798 28.8174 30.6911 30.447 31.5829C29.1052 34.605 27.924 37.9412 27.3408 41.1864C27.0594 42.7525 26.7987 44.34 26.7353 45.8576C25.3775 45.7295 23.6567 43.9093 23.004 42.8621C22.4461 41.9671 21.9177 41.0467 21.4639 40.0937ZM52.1331 61.2733C57.1235 64.3661 63.5331 62.1346 67.578 58.5249C70.2973 56.0981 66.9837 52.922 65.1935 51.2468C64.916 50.9873 64.61 50.7544 64.3055 50.5227C64.1775 50.4253 64.0497 50.328 63.9244 50.2291C61.0981 54.6211 56.4218 58.3554 52.1331 61.2733ZM21.2014 61.0066C21.5748 59.9773 21.8873 58.7003 21.007 57.8516C22.1414 57.9322 23.1307 57.1308 23.7262 56.2197C23.3479 57.0572 23.0053 58.2579 23.7017 59.0117C22.5485 58.9281 21.8659 60.2148 21.2014 61.0066Z" stroke="#FFFEFD" stroke-width="2" stroke-miterlimit="1.5" stroke-linecap="round" stroke-linejoin="round"/>
</svg>
